<?xml version="1.0" encoding="UTF-8"?>
<svg version="1.1" xmlns="http://www.w3.org/2000/svg" width="1024" height="1024">
<path d="M0 0 C0.66 0 1.32 0 2 0 C-3.55558914 44.1737088 -16.4964224 87.48948611 -47 121 C-47.95136831 122.07086227 -48.90188016 123.14248601 -49.8515625 124.21484375 C-56.98196268 132.20216327 -64.60062128 139.03566463 -73.1171875 145.51953125 C-75.08829548 147.00910787 -75.08829548 147.00910787 -77 149 C-78.73025196 150.07414971 -80.48439284 151.11001193 -82.25 152.125 C-83.34054687 152.75277344 -84.43109375 153.38054687 -85.5546875 154.02734375 C-86.69164062 154.67832031 -87.82859375 155.32929688 -89 156 C-90.03382813 156.59941406 -91.06765625 157.19882812 -92.1328125 157.81640625 C-97.44176589 160.88024803 -102.76431826 163.88823669 -108.18359375 166.75390625 C-132.07623998 178.73158978 -132.07623998 178.73158978 -151 197 C-152.485 198.2065625 -152.485 198.2065625 -154 199.4375 C-162.09664524 206.25217641 -168.29885497 214.95093586 -173.625 224.015625 C-174.305625 224.99789062 -174.305625 224.99789062 -175 226 C-175.66 226 -176.32 226 -177 226 C-176.3519624 222.60055819 -175.57175082 219.27550316 -174.66015625 215.9375 C-169.20167324 195.77415701 -169.20167324 195.77415701 -168 175 C-168.77833659 176.55667318 -169.55662369 178.11337112 -170.3347168 179.67016602 C-171.04373825 181.08770973 -171.75356986 182.50484844 -172.46411133 183.92163086 C-174.42832064 187.84122629 -176.37838978 191.76674096 -178.30078125 195.70703125 C-198.2375666 236.39477 -222.95981801 273.96737389 -254 307 C-254.556875 307.60585938 -255.11375 308.21171875 -255.6875 308.8359375 C-257 310 -257 310 -259 310 C-259 310.66 -259 311.32 -259 312 C-262.41469998 315.28683676 -266.24820625 318.10955182 -270 321 C-270.6379248 321.495 -271.27584961 321.99 -271.93310547 322.5 C-313.88113396 354.75995942 -365.75870197 368.48607237 -418 370.6875 C-419.1537915 370.73616211 -420.30758301 370.78482422 -421.49633789 370.83496094 C-423.10690063 370.89151855 -423.10690063 370.89151855 -424.75 370.94921875 C-425.71421875 370.98362061 -426.6784375 371.01802246 -427.671875 371.0534668 C-430 371 -430 371 -432 370 C-431.67 369.01 -431.34 368.02 -431 367 C-430.45125451 364.77256533 -429.91107041 362.54301907 -429.375 360.3125 C-421.94979314 330.44109818 -412.46591685 303.22286117 -393 279 C-392.33726074 278.17483887 -392.33726074 278.17483887 -391.66113281 277.33300781 C-380.35229272 263.37992954 -367.32699787 251.7680357 -353 241 C-351.51113281 239.85724609 -351.51113281 239.85724609 -349.9921875 238.69140625 C-336.22159253 228.45837014 -321.12347873 219.88862244 -306.3125 211.2578125 C-294.96222249 204.63198005 -284.09805497 197.5421952 -276 187 C-267.60192514 190.38203015 -261.99806316 200.69036542 -258.28515625 208.51953125 C-255.71876374 215.4698526 -254.37227689 222.7350047 -253 230 C-248.0385751 216.39674893 -244.80775637 202.84790824 -243.0390625 188.46875 C-242.95723221 187.80867447 -242.87540192 187.14859894 -242.79109192 186.46852112 C-242.38554389 183.17478209 -242.0042762 179.88256427 -241.65795898 176.58178711 C-240.59806436 167.54682449 -238.7107084 159.20098694 -231.9375 152.6875 C-221.02550426 144.43434467 -206.24619096 142.42302765 -193.25 139.4375 C-191.22373053 138.96516893 -189.19768697 138.4918676 -187.171875 138.01757812 C-186.18062622 137.7856778 -185.18937744 137.55377747 -184.16809082 137.31484985 C-183.1896521 137.08591034 -182.21121338 136.85697083 -181.203125 136.62109375 C-180.24047729 136.39610199 -179.27782959 136.17111023 -178.28601074 135.93930054 C-176.413467 135.50155705 -174.54102713 135.06336892 -172.66870117 134.62469482 C-170.92767694 134.21715245 -169.18631751 133.81103863 -167.44458008 133.40655518 C-165.16407541 132.87451007 -162.88644015 132.33170469 -160.609375 131.78515625 C-159.34577148 131.48617432 -158.08216797 131.18719238 -156.78027344 130.87915039 C-155.8627832 130.58903076 -154.94529297 130.29891113 -154 130 C-153.67 129.34 -153.34 128.68 -153 128 C-152.19175781 127.87238281 -151.38351562 127.74476563 -150.55078125 127.61328125 C-145.79268224 126.79147537 -141.63364022 125.03410165 -137.1875 123.1875 C-136.23262695 122.79224121 -135.27775391 122.39698242 -134.29394531 121.98974609 C-110.20167421 111.87005631 -87.61714687 100.12471743 -67 84 C-66.46632813 83.58347168 -65.93265625 83.16694336 -65.3828125 82.73779297 C-57.87951522 76.80468197 -51.03825588 70.23211593 -44.25 63.5 C-43.45037842 62.70972412 -42.65075684 61.91944824 -41.8269043 61.10522461 C-41.08480713 60.35893799 -40.34270996 59.61265137 -39.578125 58.84375 C-38.91200195 58.17537109 -38.24587891 57.50699219 -37.55957031 56.81835938 C-35.7831359 54.97871354 -35.7831359 54.97871354 -35 52 C-34.26652344 51.42636719 -33.53304688 50.85273438 -32.77734375 50.26171875 C-29.3680296 47.48535744 -27.09356181 44.377501 -24.5625 40.8125 C-24.08312988 40.14702148 -23.60375977 39.48154297 -23.10986328 38.79589844 C-16.64229076 30.38836434 -16.64229076 30.38836434 -12 21 C-11.34 21 -10.68 21 -10 21 C-9.690625 19.824375 -9.690625 19.824375 -9.375 18.625 C-7.82940899 14.55026007 -5.75885055 11.138381 -3.4375 7.46484375 C-2.02055798 5.03525023 -0.97640489 2.63347664 0 0 Z " fill="#1B1C1C" transform="translate(724,355)"/>
<path d="M0 0 C1.51815699 0.00015911 3.0363194 0.00585313 4.55444336 0.01586914 C5.35208603 0.01728409 6.1497287 0.01869904 6.97154236 0.02015686 C9.52916146 0.02577223 12.08669429 0.03832727 14.64428711 0.05102539 C16.37410356 0.05603841 18.10392137 0.06060166 19.83374023 0.06469727 C24.08312264 0.07574664 28.33244023 0.09302153 32.58178711 0.11352539 C29.46384701 54.14078256 10.54171315 103.24623054 -26.5625 142.91674805 C-28.641413 145.14299155 -30.63083352 147.38176663 -32.52368164 149.76977539 C-34.23364837 151.88519814 -35.9055918 153.55756513 -37.98071289 155.30102539 C-40.2907246 157.2647465 -42.55135044 159.23997261 -44.75024414 161.32836914 C-81.13063622 195.80871002 -140.68074093 223.04376366 -191.04321289 223.36352539 C-192.27297852 223.39446289 -192.27297852 223.39446289 -193.52758789 223.42602539 C-199.46249603 223.464192 -203.54081115 222.486767 -208.24633789 218.60571289 C-211.76153675 214.60765704 -213.25126971 211.29625646 -214.09399414 206.03149414 C-214.33534505 204.03603084 -214.33534505 204.03603084 -215.41821289 202.11352539 C-213.76125217 154.47835569 -193.89096932 111.01990673 -163.41821289 75.11352539 C-162.89477295 74.48857178 -162.37133301 73.86361816 -161.83203125 73.21972656 C-159.28113459 70.19642691 -156.7778488 67.34144656 -153.73071289 64.80102539 C-151.44972631 62.87161945 -149.22512521 60.93002816 -147.05883789 58.87133789 C-109.25646487 23.01635984 -57.53824771 7.04638517 -6.84130859 1.4831543 C-3.50766924 0.97462735 -3.73494948 0.12404482 0 0 Z " fill="#1B1C1C" transform="translate(699.418212890625,255.886474609375)"/>
<path d="M0 0 C3.4797406 0.11135894 6.95853934 0.24162132 10.4375 0.375 C11.89833008 0.42140625 11.89833008 0.42140625 13.38867188 0.46875 C18.74219517 0.68360712 23.71729303 1.22138087 28.91918945 2.50488281 C31.52911427 3.12589977 34.16351162 3.50444031 36.81762695 3.88549805 C62.31483637 7.62823544 86.90129713 15.66114707 110 27 C110.68562012 27.33064453 111.37124023 27.66128906 112.07763672 28.00195312 C114.30570383 29.07673096 116.52859599 30.16152431 118.75 31.25 C119.45487549 31.59160156 120.15975098 31.93320312 120.88598633 32.28515625 C125.88426312 34.76852623 125.88426312 34.76852623 127 37 C127.69867188 37.26683594 128.39734375 37.53367187 129.1171875 37.80859375 C132.89477502 39.36979184 135.86857745 41.6200791 139.125 44.0625 C139.78733643 44.55492187 140.44967285 45.04734375 141.13208008 45.5546875 C151.278142 53.14676187 160.77804546 61.32356953 170 70 C170.70898438 70.65484375 171.41796875 71.3096875 172.1484375 71.984375 C178.49593299 78.04688089 183.77834107 84.97077532 189 92 C189.49483887 92.66112793 189.98967773 93.32225586 190.49951172 94.00341797 C191.96427994 95.98431985 193.39319134 97.98634644 194.8125 100 C195.26351074 100.61045166 195.71452148 101.22090332 196.17919922 101.84985352 C198.1832592 104.77703715 199.1130121 106.35235372 198.4921875 109.91015625 C197.99976563 110.92980469 197.50734375 111.94945312 197 113 C196.4293837 114.30937125 195.86332416 115.62073371 195.30078125 116.93359375 C194.98206055 117.65297119 194.66333984 118.37234863 194.33496094 119.11352539 C189.20013185 130.78459465 185.36639396 142.71176672 182 155 C181.78859375 155.76602539 181.5771875 156.53205078 181.359375 157.32128906 C178.35566469 168.51924287 177.10899783 179.80476802 176.12597656 191.34448242 C175.34782037 199.87606721 174.19341573 206.62962953 168 213 C160.35111168 217.86747438 152.59143345 217.14435077 144 216 C144 215.34 144 214.68 144 214 C143.44820068 213.89623047 142.89640137 213.79246094 142.32788086 213.68554688 C136.73045626 212.54978588 131.74859111 210.872392 126.5625 208.5 C125.79607178 208.15324219 125.02964355 207.80648437 124.23999023 207.44921875 C111.41341359 201.53187397 99.11130703 194.76459899 88 186 C87.16339844 185.35417969 86.32679688 184.70835937 85.46484375 184.04296875 C80.19351039 179.91226394 75.18798447 175.54129703 70.24609375 171.0234375 C68.47274404 169.42588072 66.68316018 167.91616508 64.8125 166.4375 C61.14250325 163.25683615 58.11815661 159.71355266 55 156 C54.20078125 155.06542969 53.4015625 154.13085938 52.578125 153.16796875 C47.87729375 147.61956338 43.44033803 142.00030986 39.375 135.9609375 C38.01160814 133.89627762 38.01160814 133.89627762 36 132 C33.86559373 128.40999864 31.96454238 124.68506792 30 121 C29.22594507 119.57905391 28.45116568 118.1585023 27.67578125 116.73828125 C26.8667827 115.24240635 26.05818816 113.74631289 25.25 112.25 C24.66690063 111.18736938 24.66690063 111.18736938 24.07202148 110.10327148 C21.76274316 105.79460054 20.16886405 101.75006456 19 97 C18.01 97 17.02 97 16 97 C16.495 95.515 16.495 95.515 17 94 C16.20620163 91.41866321 15.34079567 88.95354765 14.375 86.4375 C4.2789327 58.84550734 -0.81320705 29.41098822 0 0 Z " fill="#1B1C1C" transform="translate(292,263)"/>
<path d="M0 0 C2.88025787 1.25832542 5.69193601 2.61154759 8.50390625 4.015625 C9.38175781 4.44875 10.25960937 4.881875 11.1640625 5.328125 C28.25300458 14.18719365 42.92616988 26.66839307 54.50390625 42.015625 C55.1071875 42.81484375 55.71046875 43.6140625 56.33203125 44.4375 C63.63383052 54.50214223 69.30919164 65.01010622 73.94140625 76.515625 C74.28357178 77.36431152 74.6257373 78.21299805 74.97827148 79.08740234 C76.67036419 83.42594698 77.7527478 87.40657511 78.50390625 92.015625 C79.16390625 92.345625 79.82390625 92.675625 80.50390625 93.015625 C81.06640625 95.23828125 81.06640625 95.23828125 81.50390625 98.078125 C82.07854127 101.58978346 82.70795369 105.01576684 83.62890625 108.453125 C84.50390625 112.015625 84.50390625 112.015625 84.50390625 116.015625 C85.49390625 116.345625 86.48390625 116.675625 87.50390625 117.015625 C86.84390625 117.015625 86.18390625 117.015625 85.50390625 117.015625 C85.77654297 118.16998047 85.77654297 118.16998047 86.0546875 119.34765625 C90.18945474 138.24036195 91.77224199 157.71482634 92.50390625 177.015625 C88.93359519 178.20572869 86.46448767 177.94699507 82.7109375 177.67578125 C82.04607834 177.62997421 81.38121918 177.58416718 80.69621277 177.53697205 C78.56916983 177.38965835 76.44280831 177.23439665 74.31640625 177.078125 C63.95835245 176.25270126 63.95835245 176.25270126 53.578125 176.01171875 C52.56363281 176.01300781 51.54914063 176.01429688 50.50390625 176.015625 C50.17390625 175.685625 49.84390625 175.355625 49.50390625 175.015625 C46.92257124 174.56297384 44.34489412 174.15519621 41.75390625 173.765625 C26.16269519 171.27335546 11.08316753 167.48898303 -3.80859375 162.25 C-6.73652608 161.26988706 -9.46092302 160.51592787 -12.49609375 160.015625 C-16.1536484 159.37017418 -16.1536484 159.37017418 -17.84301758 157.62109375 C-19.71464751 155.80336543 -21.48208404 154.85382701 -23.8203125 153.703125 C-24.67625 153.27322266 -25.5321875 152.84332031 -26.4140625 152.40039062 C-27.32800781 151.94341797 -28.24195313 151.48644531 -29.18359375 151.015625 C-50.00880746 140.33200509 -67.59149063 126.12909448 -83.49609375 109.015625 C-84.24922852 108.20810791 -84.24922852 108.20810791 -85.01757812 107.38427734 C-86.38401914 105.88035334 -87.6919092 104.3238455 -88.99609375 102.765625 C-89.72828125 101.89421875 -90.46046875 101.0228125 -91.21484375 100.125 C-94.24757107 92.76508858 -89.62552998 84.07747952 -86.74609375 77.140625 C-86.38829834 76.26784912 -86.03050293 75.39507324 -85.66186523 74.49584961 C-78.54461851 57.33072517 -69.32827271 43.34134931 -56.49609375 30.015625 C-55.92632813 29.38269531 -55.3565625 28.74976563 -54.76953125 28.09765625 C-43.49479573 15.92672381 -27.76209947 7.32522028 -13.19921875 -0.265625 C-12.25224121 -0.7596582 -12.25224121 -0.7596582 -11.28613281 -1.26367188 C-7.24839391 -2.88934089 -3.86243528 -1.52321391 0 0 Z " fill="#1B1C1C" transform="translate(639.49609375,531.984375)"/>
<path d="M0 0 C1.03125 0.309375 2.0625 0.61875 3.125 0.9375 C6 2 6 2 7.69921875 2.87890625 C11.60769324 4.78337515 15.71017737 6.25272372 19.77539062 7.7890625 C24.89036745 9.78073489 24.89036745 9.78073489 26 12 C28.11327425 12.90725434 28.11327425 12.90725434 30.5625 13.625 C31.38878906 13.88539063 32.21507812 14.14578125 33.06640625 14.4140625 C34.02353516 14.70410156 34.02353516 14.70410156 35 15 C33.77930015 18.66209955 32.43539793 18.98512671 29.171875 20.734375 C26.75520382 22.14265101 24.60431847 23.7477618 22.375 25.4375 C12.15140964 32.98248164 1.07590706 39.34048352 -9.796875 45.89453125 C-28.9313204 57.44481552 -46.64164078 70.10084119 -63.0625 85.3125 C-63.65748291 85.86268799 -64.25246582 86.41287598 -64.86547852 86.97973633 C-71.90232477 93.61589394 -77.94023292 101.01997741 -83.8125 108.6875 C-84.67004883 109.78674805 -84.67004883 109.78674805 -85.54492188 110.90820312 C-88.27775966 114.46956282 -90.65340184 117.65143141 -92 122 C-92.66 121.67 -93.32 121.34 -94 121 C-90.18031416 99.90200371 -85.37110219 80.83964356 -75 62 C-74.65598145 61.36465332 -74.31196289 60.72930664 -73.95751953 60.07470703 C-68.44305173 49.99441414 -61.80407622 41.41146894 -54 33 C-52.74703125 31.64068359 -52.74703125 31.64068359 -51.46875 30.25390625 C-41.04973111 19.41203756 -29.02655702 11.33906254 -16 4 C-15.02289063 3.43667969 -14.04578125 2.87335937 -13.0390625 2.29296875 C-8.32432818 -0.27677383 -5.34749458 -1.82300952 0 0 Z " fill="#1C1C1D" transform="translate(400,518)"/>
<path d="M0 0 C3.48618746 1.16206249 3.56799616 1.59058616 5.3125 4.625 C9.76871125 11.5989706 15.63468279 17.36293047 21.35791016 23.29492188 C22.72253229 24.71188901 24.07221077 26.14322958 25.41796875 27.578125 C31.69078535 34.12162599 38.78389657 39.55097814 46 45 C46.95261719 45.72445312 47.90523438 46.44890625 48.88671875 47.1953125 C67.47964555 61.0382215 88.54518215 71.79374731 110 80.4375 C126.00072847 86.90357431 137.23178181 93.9819835 144.88671875 110.1171875 C146.31560697 113.81725595 146.7030077 117.06485199 147 121 C147.66 121.33 148.32 121.66 149 122 C149 125.63 149 129.26 149 133 C146.50610463 131.75305232 146.35426459 130.88381165 145.25 128.375 C136.23106448 109.80660334 113.56812529 102.51051067 95.72311401 95.29330444 C76.16325865 87.36358233 58.02873611 77.87269688 42 64 C41.49210937 63.57122559 40.98421875 63.14245117 40.4609375 62.70068359 C20.91069216 46.11788621 8.39207994 24.98893591 0 1 C0 0.67 0 0.34 0 0 Z " fill="#1C1C1C" transform="translate(323,415)"/>
<path d="M0 0 C0.66 0 1.32 0 2 0 C1.01 6.93 0.02 13.86 -1 21 C-1.99 20.34 -2.98 19.68 -4 19 C-4 18.01 -4 17.02 -4 16 C-5.32 16.33 -6.64 16.66 -8 17 C-6.51095825 13.10391502 -4.75621287 9.40902982 -2.875 5.6875 C-2.06675781 4.08455078 -2.06675781 4.08455078 -1.2421875 2.44921875 C-0.62730469 1.23685547 -0.62730469 1.23685547 0 0 Z " fill="#262626" transform="translate(724,355)"/>
<path d="M0 0 C3 1 3 1 4.90234375 4.2109375 C5.59312304 5.59283206 6.27080861 6.98132457 6.9375 8.375 C7.46537109 9.45950439 7.46537109 9.45950439 8.00390625 10.56591797 C15.7800782 26.78427661 15.7800782 26.78427661 15 34 C13.30969462 31.46454193 12.30394601 29.452177 11.23046875 26.6484375 C10.73256836 25.37033203 10.73256836 25.37033203 10.22460938 24.06640625 C9.5425814 22.29647302 8.86282741 20.52566156 8.18554688 18.75390625 C6.13628115 13.50684198 3.82243609 8.64666132 0.9465332 3.79931641 C0 2 0 2 0 0 Z " fill="#161616" transform="translate(701,588)"/>
<path d="M0 0 C0.33 0 0.66 0 1 0 C1.495 8.91 1.495 8.91 2 18 C-1.63892608 19.21297536 -4.24575998 18.92580441 -8.07421875 18.66015625 C-8.7580513 18.61434921 -9.44188385 18.56854218 -10.1464386 18.52134705 C-12.32721597 18.37397891 -14.50731382 18.21834765 -16.6875 18.0625 C-18.16728042 17.96104321 -19.64709789 17.86012532 -21.12695312 17.75976562 C-24.75175266 17.51275865 -28.37598843 17.25833849 -32 17 C-32 16.67 -32 16.34 -32 16 C-27.38 15.67 -22.76 15.34 -18 15 C-18 15.33 -18 15.66 -18 16 C-12.39 16.33 -6.78 16.66 -1 17 C-0.67 11.39 -0.34 5.78 0 0 Z " fill="#282828" transform="translate(730,691)"/>
<path d="M0 0 C2 2 2 2 2 5 C2.99 5 3.98 5 5 5 C3.67997942 8.57294032 2.10478612 11.63953492 0 14.8125 C-0.515625 15.60269531 -1.03125 16.39289062 -1.5625 17.20703125 C-2.036875 17.79871094 -2.51125 18.39039063 -3 19 C-3.66 19 -4.32 19 -5 19 C-4.23915412 14.81134319 -3.12177302 10.77515205 -1.9375 6.6875 C-1.57527344 5.43324219 -1.21304688 4.17898438 -0.83984375 2.88671875 C-0.42412109 1.45779297 -0.42412109 1.45779297 0 0 Z " fill="#222121" transform="translate(552,562)"/>
<path d="M0 0 C0.33 0 0.66 0 1 0 C1 1.98 1 3.96 1 6 C7.93 6 14.86 6 22 6 C22 6.33 22 6.66 22 7 C18.98012839 7.36503943 15.95965035 7.71730228 12.9375 8.0625 C12.08994141 8.16626953 11.24238281 8.27003906 10.36914062 8.37695312 C5.32393367 8.94186047 0.98886652 8.96798903 -4 8 C-3 5 -3 5 -2 3 C-1.34 3 -0.68 3 0 3 C0 2.01 0 1.02 0 0 Z " fill="#151515" transform="translate(296,717)"/>
<path d="M0 0 C9.75583392 0.57121986 19.33144919 1.60523707 29 3 C29 3.33 29 3.66 29 4 C26.35448944 4.19386492 23.70882217 4.38038267 21.0625 4.5625 C20.30775391 4.61857422 19.55300781 4.67464844 18.77539062 4.73242188 C16.85254042 4.86176157 14.92610452 4.93516912 13 5 C12.67 4.67 12.34 4.34 12 4 C9.67182036 3.63239269 7.3381615 3.29758419 5 3 C5 2.34 5 1.68 5 1 C3.35 1 1.7 1 0 1 C0 0.67 0 0.34 0 0 Z " fill="#151515" transform="translate(677,703)"/>
<path d="M0 0 C4.80428217 4.33935163 4.80428217 4.33935163 5 8 C4.07421875 9.81640625 4.07421875 9.81640625 2.6875 11.5625 C2.01267578 12.43068359 2.01267578 12.43068359 1.32421875 13.31640625 C0.88722656 13.87199219 0.45023437 14.42757812 0 15 C-0.66 15.99 -1.32 16.98 -2 18 C-3.29132785 14.12601645 -2.41113572 11.18011214 -1.5625 7.3125 C-1.41490234 6.61060547 -1.26730469 5.90871094 -1.11523438 5.18554688 C-0.7504068 3.45555806 -0.37611311 1.72757037 0 0 Z " fill="#262625" transform="translate(309,622)"/>
<path d="M0 0 C0 0.33 0 0.66 0 1 C-8.862582 1.33165588 -17.2580141 0.3213258 -26 -1 C-26 -1.33 -26 -1.66 -26 -2 C-8.14350797 -3.70159453 -8.14350797 -3.70159453 0 0 Z " fill="#121212" transform="translate(322,267)"/>
<path d="M0 0 C-3.34799085 3.06192834 -5.59977035 3.35882691 -10.078125 3.29296875 C-11.23828125 3.28330078 -12.3984375 3.27363281 -13.59375 3.26367188 C-14.8003125 3.23853516 -16.006875 3.21339844 -17.25 3.1875 C-19.08304687 3.16719727 -19.08304687 3.16719727 -20.953125 3.14648438 C-23.96919498 3.1111398 -26.98437487 3.0617956 -30 3 C-30 2.67 -30 2.34 -30 2 C-26.12534889 1.66252749 -22.25022962 1.33075778 -18.375 1 C-17.28058594 0.90460938 -16.18617188 0.80921875 -15.05859375 0.7109375 C-13.99511719 0.62070312 -12.93164062 0.53046875 -11.8359375 0.4375 C-10.86188965 0.35371094 -9.8878418 0.26992188 -8.88427734 0.18359375 C-5.91484768 -0.00542023 -2.97460517 -0.0308649 0 0 Z " fill="#0E0E0D" transform="translate(530,475)"/>
<path d="M0 0 C0.12375 0.639375 0.2475 1.27875 0.375 1.9375 C0.684375 2.9584375 0.684375 2.9584375 1 4 C1.66 4.33 2.32 4.66 3 5 C3 8.63 3 12.26 3 16 C0.46796138 14.73398069 0.18640935 13.65538869 -1 11.125 C-2.21201839 8.55892982 -3.41269132 6.38096302 -5 4 C-4.360625 4.165 -3.72125 4.33 -3.0625 4.5 C-1.19173179 5.03926667 -1.19173179 5.03926667 0 5 C0 3.35 0 1.7 0 0 Z " fill="#2C2B2B" transform="translate(469,532)"/>
<path d="M0 0 C1.13199353 0.9080162 2.25532363 1.82683826 3.375 2.75 C4.00148438 3.26046875 4.62796875 3.7709375 5.2734375 4.296875 C7.0885783 6.08737588 7.89756451 7.72831475 9 10 C9.680625 10.33 10.36125 10.66 11.0625 11 C11.701875 11.33 12.34125 11.66 13 12 C13.62109375 14.0625 13.62109375 14.0625 14 16 C9.81708722 12.49213943 5.80979248 8.91864369 2 5 C1.34 4.34 0.68 3.68 0 3 C0 2.01 0 1.02 0 0 Z " fill="#141414" transform="translate(349,418)"/>
<path d="M0 0 C0.33 0.66 0.66 1.32 1 2 C3.11327425 2.90725434 3.11327425 2.90725434 5.5625 3.625 C6.38878906 3.88539063 7.21507812 4.14578125 8.06640625 4.4140625 C9.02353516 4.70410156 9.02353516 4.70410156 10 5 C9.67 5.99 9.34 6.98 9 8 C7.125 8.875 7.125 8.875 5 9 C3.25 7.6875 3.25 7.6875 2 6 C2 5.34 2 4.68 2 4 C1.34 4 0.68 4 0 4 C-0.33 3.01 -0.66 2.02 -1 1 C-0.67 0.67 -0.34 0.34 0 0 Z " fill="#232323" transform="translate(425,528)"/>
<path d="M0 0 C0.66 0 1.32 0 2 0 C2 3.96 2 7.92 2 12 C1.67 12 1.34 12 1 12 C0.67 15.3 0.34 18.6 0 22 C-2 20 -2 20 -2.04345703 17.93701172 C-1.94919434 17.10959473 -1.85493164 16.28217773 -1.7578125 15.4296875 C-1.66113281 14.53378906 -1.56445312 13.63789063 -1.46484375 12.71484375 C-1.35269531 11.77769531 -1.24054688 10.84054687 -1.125 9.875 C-1.02058594 8.93011719 -0.91617187 7.98523438 -0.80859375 7.01171875 C-0.5487593 4.6732087 -0.27883941 2.33630756 0 0 Z " fill="#2A2A2A" transform="translate(486,438)"/>
<path d="M0 0 C0.33 0 0.66 0 1 0 C1.2361959 6.40353322 0.823321 11.84629161 -1 18 C-1.66 18 -2.32 18 -3 18 C-2.51679152 11.7945858 -1.66681876 6.00054754 0 0 Z " fill="#141414" transform="translate(726,287)"/>
<path d="M0 0 C0.99 0.33 1.98 0.66 3 1 C-1 5 -5 9 -9 13 C-8.51286902 8.58489226 -7.14946803 6.69553355 -3.9375 3.6875 C-3.20402344 2.99011719 -2.47054687 2.29273438 -1.71484375 1.57421875 C-1.14894531 1.05472656 -0.58304688 0.53523437 0 0 Z " fill="#131312" transform="translate(583,562)"/>
<path d="M0 0 C1.58206057 0.00667536 3.16410534 0.0186375 4.74609375 0.03515625 C5.55240234 0.03966797 6.35871094 0.04417969 7.18945312 0.04882812 C9.18753131 0.06065107 11.18557158 0.07858711 13.18359375 0.09765625 C13.18359375 0.42765625 13.18359375 0.75765625 13.18359375 1.09765625 C10.83014569 1.43689201 8.47604535 1.76916159 6.12109375 2.09765625 C5.13592773 2.24074219 5.13592773 2.24074219 4.13085938 2.38671875 C-0.21779388 2.98653299 -4.42969696 3.18892718 -8.81640625 3.09765625 C-8.17703125 2.78828125 -7.53765625 2.47890625 -6.87890625 2.16015625 C-2.82603626 0.07231413 -2.82603626 0.07231413 0 0 Z " fill="#100F0F" transform="translate(681.81640625,258.90234375)"/>
<path d="M0 0 C0 4.03381023 -1.59573562 5.49433637 -4 8.6875 C-4.7425 9.68136719 -5.485 10.67523438 -6.25 11.69921875 C-7.11625 12.83810547 -7.11625 12.83810547 -8 14 C-8.33 13.01 -8.66 12.02 -9 11 C-7.63671875 8.5546875 -7.63671875 8.5546875 -5.6875 5.875 C-4.73423828 4.54082031 -4.73423828 4.54082031 -3.76171875 3.1796875 C-2 1 -2 1 0 0 Z " fill="#161616" transform="translate(709,384)"/>
<path d="M0 0 C1.0219601 3.18184739 0.94954615 5.32243328 0.1875 8.5625 C0.01605469 9.32691406 -0.15539062 10.09132813 -0.33203125 10.87890625 C-1 13 -1 13 -3 16 C-3.37952295 9.80112515 -2.8352113 5.5522888 0 0 Z " fill="#131313" transform="translate(313,611)"/>
<path d="M0 0 C0.66 0 1.32 0 2 0 C1.34 4.95 0.68 9.9 0 15 C-0.33 15 -0.66 15 -1 15 C-1.33 13.02 -1.66 11.04 -2 9 C-2.99 9.495 -2.99 9.495 -4 10 C-2.66666667 6.66666667 -1.33333333 3.33333333 0 0 Z " fill="#302F2F" transform="translate(724,355)"/>
<path d="M0 0 C2.35694954 0.09031574 4.71153582 0.24688128 7.0625 0.4375 C8.35285156 0.53933594 9.64320313 0.64117187 10.97265625 0.74609375 C12.47119141 0.87177734 12.47119141 0.87177734 14 1 C14 1.33 14 1.66 14 2 C13.25234375 2.06058594 12.5046875 2.12117188 11.734375 2.18359375 C10.74953125 2.26738281 9.7646875 2.35117187 8.75 2.4375 C7.77546875 2.51871094 6.8009375 2.59992188 5.796875 2.68359375 C3.09854279 2.91661931 3.09854279 2.91661931 0.9375 3.5625 C-1.43809707 4.09892514 -3.34226807 3.8811704 -5.75 3.5625 C-6.94882812 3.40974609 -6.94882812 3.40974609 -8.171875 3.25390625 C-8.77515625 3.17011719 -9.3784375 3.08632813 -10 3 C-10 2.67 -10 2.34 -10 2 C-9.04287109 1.90912109 -9.04287109 1.90912109 -8.06640625 1.81640625 C-6.82697266 1.69072266 -6.82697266 1.69072266 -5.5625 1.5625 C-4.73878906 1.48128906 -3.91507813 1.40007812 -3.06640625 1.31640625 C-1.01337975 1.21069185 -1.01337975 1.21069185 0 0 Z " fill="#2E2F2E" transform="translate(696,256)"/>
<path d="M0 0 C0.99 0.33 1.98 0.66 3 1 C3.39143394 2.74639757 3.76254287 4.49735918 4.125 6.25 C4.33382813 7.22453125 4.54265625 8.1990625 4.7578125 9.203125 C5.0202996 12.23442766 4.61988849 13.48017346 3 16 C2.49411853 14.08487728 1.99551609 12.16783078 1.5 10.25 C1.2215625 9.18265625 0.943125 8.1153125 0.65625 7.015625 C0 4 0 4 0 0 Z " fill="#262626" transform="translate(298,318)"/>
<path d="M0 0 C6.93 0.495 6.93 0.495 14 1 C14 1.33 14 1.66 14 2 C7.62694402 2.74507544 1.41688675 3.10349817 -5 3 C-5 2.67 -5 2.34 -5 2 C-3.35 1.67 -1.7 1.34 0 1 C0 0.67 0 0.34 0 0 Z " fill="#2D2D2D" transform="translate(316,722)"/>
<path d="M0 0 C0.66 0 1.32 0 2 0 C2.85298376 3.67387495 3.10789471 7.0447393 3.0625 10.8125 C3.05347656 11.78832031 3.04445313 12.76414062 3.03515625 13.76953125 C3.02355469 14.50558594 3.01195312 15.24164062 3 16 C2.67 16 2.34 16 2 16 C0.80911014 10.61972975 -0.2919519 5.54708616 0 0 Z " fill="#161616" transform="translate(467,574)"/>
<path d="M0 0 C0.99 0.33 1.98 0.66 3 1 C0.03 3.97 -2.94 6.94 -6 10 C-6.66 9.67 -7.32 9.34 -8 9 C-5.36 6.03 -2.72 3.06 0 0 Z " fill="#151616" transform="translate(445,546)"/>
<path d="M0 0 C2.66666667 1.33333333 5.33333333 2.66666667 8 4 C8 4.66 8 5.32 8 6 C3.78087253 5.5205537 1.20336822 4.83374881 -2 2 C-1.34 2 -0.68 2 0 2 C0 1.34 0 0.68 0 0 Z " fill="#222323" transform="translate(632,689)"/>
<path d="M0 0 C-3.22515763 1.73662334 -6.51329166 2.8905928 -10 4 C-10.33 3.01 -10.66 2.02 -11 1 C-7.2297564 -1.56376565 -4.32597804 -0.83191885 0 0 Z " fill="#252525" transform="translate(637,531)"/>
<path d="M0 0 C0.66 0.33 1.32 0.66 2 1 C1.04956626 2.33897583 0.08940853 3.67105427 -0.875 5 C-1.40867187 5.7425 -1.94234375 6.485 -2.4921875 7.25 C-3.23855469 8.11625 -3.23855469 8.11625 -4 9 C-4.66 9 -5.32 9 -6 9 C-5.52797514 4.75177626 -3.03344482 2.80010291 0 0 Z " fill="#131313" transform="translate(340,624)"/>
<path d="M0 0 C0.33 0.99 0.66 1.98 1 3 C0.0479279 4.00596297 -0.91187346 5.00461563 -1.875 6 C-2.40867187 6.556875 -2.94234375 7.11375 -3.4921875 7.6875 C-5 9 -5 9 -7 9 C-5.44499019 5.18315774 -2.96404505 2.80804268 0 0 Z " fill="#161514" transform="translate(674,394)"/>
<path d="M0 0 C2.9375 0.8125 2.9375 0.8125 4.9375 2.8125 C0.95553543 3.86654945 -2.04445309 3.65348656 -6.0625 2.8125 C-4.08959835 0.07235882 -3.46862789 -0.21236497 0 0 Z " fill="#262626" transform="translate(368.0625,276.1875)"/>
<path d="M0 0 C1.5027237 0.97498145 3.00211963 1.95509389 4.5 2.9375 C5.3353125 3.48277344 6.170625 4.02804687 7.03125 4.58984375 C7.6809375 5.05519531 8.330625 5.52054687 9 6 C9 6.33 9 6.66 9 7 C5.64708882 7.37254569 4.3961577 7.31050198 1.6875 5.1875 C0 3 0 3 0 0 Z " fill="#141415" transform="translate(490,470)"/>
<path d="M0 0 C0.66 0 1.32 0 2 0 C1.43454163 3.95820859 0.19097652 6.6659053 -2 10 C-2.6875 8.375 -2.6875 8.375 -3 6 C-1.5625 2.75 -1.5625 2.75 0 0 Z " fill="#151515" transform="translate(508,371)"/>
<path d="M0 0 C0.66 0.99 1.32 1.98 2 3 C1.01 4.32 0.02 5.64 -1 7 C-1.66 6.67 -2.32 6.34 -3 6 C-3 3 -3 3 -1.5 1.3125 C-0.7575 0.6628125 -0.7575 0.6628125 0 0 Z " fill="#222222" transform="translate(672,426)"/>
<path d="M0 0 C1.98 0 3.96 0 6 0 C6 0.66 6 1.32 6 2 C7.65 2 9.3 2 11 2 C11 2.33 11 2.66 11 3 C3.57142857 3.14285714 3.57142857 3.14285714 0 2 C0 1.34 0 0.68 0 0 Z " fill="#242525" transform="translate(671,702)"/>
<path d="M0 0 C0.33 1.32 0.66 2.64 1 4 C-0.32 4.99 -1.64 5.98 -3 7 C-3.66 6.34 -4.32 5.68 -5 5 C-3.35 3.35 -1.7 1.7 0 0 Z " fill="#272828" transform="translate(349,614)"/>
<path d="M0 0 C0.33 0 0.66 0 1 0 C0.25 7.625 0.25 7.625 -2 11 C-2.25 3.375 -2.25 3.375 0 0 Z " fill="#0F0F10" transform="translate(479,563)"/>
<path d="M0 0 C-1.98 1.32 -3.96 2.64 -6 4 C-6.66 3.67 -7.32 3.34 -8 3 C-8 2.01 -8 1.02 -8 0 C-4.94736336 -0.98120464 -3.05263664 -0.98120464 0 0 Z " fill="#222122" transform="translate(604,528)"/>
<path d="M0 0 C3.93673644 1.31224548 6.22719294 2.91910327 9 6 C4.70042176 5.52226908 2.78280018 4.29813355 0 1 C0 0.67 0 0.34 0 0 Z " fill="#161616" transform="translate(386,451)"/>
<path d="M0 0 C3 1 3 1 4.6875 4.0625 C5.120625 5.031875 5.55375 6.00125 6 7 C5.34 7 4.68 7 4 7 C3.67 7.66 3.34 8.32 3 9 C2.01 6.03 1.02 3.06 0 0 Z " fill="#2F3030" transform="translate(323,415)"/>
<path d="M0 0 C0 2.64 0 5.28 0 8 C-0.33 7.01 -0.66 6.02 -1 5 C-1.99 5.33 -2.98 5.66 -4 6 C-4 4.68 -4 3.36 -4 2 C-1 0 -1 0 0 0 Z " fill="#0A0A0B" transform="translate(723,363)"/>
<path d="M0 0 C0.33 0.66 0.66 1.32 1 2 C0.22265625 3.9453125 0.22265625 3.9453125 -0.9375 6.125 C-1.31777344 6.84945312 -1.69804688 7.57390625 -2.08984375 8.3203125 C-2.39019531 8.87460937 -2.69054687 9.42890625 -3 10 C-3.62109375 8.203125 -3.62109375 8.203125 -4 6 C-2.0625 2.75 -2.0625 2.75 0 0 Z " fill="#101010" transform="translate(561,593)"/>
<path d="M0 0 C0.99 0.66 1.98 1.32 3 2 C3 2.99 3 3.98 3 5 C2.34 5 1.68 5 1 5 C1 5.99 1 6.98 1 8 C0.01 8.33 -0.98 8.66 -2 9 C-1.34 6.03 -0.68 3.06 0 0 Z " fill="#242424" transform="translate(476,570)"/>
<path d="M0 0 C0 0.33 0 0.66 0 1 C-8.42857143 2.28571429 -8.42857143 2.28571429 -13 1 C-13 0.67 -13 0.34 -13 0 C-8.38926889 -1.29676812 -4.66159911 -0.71109139 0 0 Z " fill="#292A29" transform="translate(454,478)"/>
<path d="M0 0 C0.99 0.66 1.98 1.32 3 2 C3 2.66 3 3.32 3 4 C2.34 4 1.68 4 1 4 C1 4.99 1 5.98 1 7 C0.34 7 -0.32 7 -1 7 C-1.33 7.99 -1.66 8.98 -2 10 C-1.54177532 6.53058454 -1.10868317 3.32604951 0 0 Z " fill="#252525" transform="translate(493,407)"/>
<path d="M0 0 C0.66 0.33 1.32 0.66 2 1 C1.01 3.97 0.02 6.94 -1 10 C-1.33 10 -1.66 10 -2 10 C-1.54177532 6.53058454 -1.10868317 3.32604951 0 0 Z " fill="#232322" transform="translate(710,338)"/>
<path d="M0 0 C3.83736322 0.95934081 4.59660228 1.23609263 7 4 C6.67 4.99 6.34 5.98 6 7 C4.02 4.69 2.04 2.38 0 0 Z " fill="#161615" transform="translate(457,331)"/>
<path d="M0 0 C0 0.33 0 0.66 0 1 C-3.3 1.33 -6.6 1.66 -10 2 C-10.33 1.34 -10.66 0.68 -11 0 C-7.01803543 -1.05404945 -4.01804691 -0.84098656 0 0 Z " fill="#242424" transform="translate(365,717)"/>
<path d="M0 0 C-2.62198774 2.15377564 -4.64404172 3.40072174 -8 4 C-7 1 -7 1 -5.125 -0.25 C-3 -1 -3 -1 0 0 Z " fill="#222322" transform="translate(420,697)"/>
<path d="M0 0 C0.66 0 1.32 0 2 0 C2.33 2.64 2.66 5.28 3 8 C2.01 7.67 1.02 7.34 0 7 C0 4.69 0 2.38 0 0 Z " fill="#222323" transform="translate(724,654)"/>
<path d="M0 0 C0.99 0.33 1.98 0.66 3 1 C2.38125 1.2475 1.7625 1.495 1.125 1.75 C-1.35068687 3.20628639 -1.95125002 4.37812506 -3 7 C-3.66 6.67 -4.32 6.34 -5 6 C-3.35 4.02 -1.7 2.04 0 0 Z " fill="#0D0D0D" transform="translate(353,611)"/>
<path d="M0 0 C0.66 0.33 1.32 0.66 2 1 C0.35 2.65 -1.3 4.3 -3 6 C-3.99 5.67 -4.98 5.34 -6 5 C-4.02 3.35 -2.04 1.7 0 0 Z " fill="#151514" transform="translate(347,591)"/>
<path d="M0 0 C1.32 0.33 2.64 0.66 4 1 C1.69 2.65 -0.62 4.3 -3 6 C-2 2 -2 2 0 0 Z " fill="#151515" transform="translate(494,506)"/>
<path d="M0 0 C-5.2734375 3.22265625 -5.2734375 3.22265625 -7 4 C-7.66 3.67 -8.32 3.34 -9 3 C-5.83583464 -0.30799106 -4.50236011 -1.35070803 0 0 Z " fill="#222121" transform="translate(611,448)"/>
<path d="M0 0 C3.36591866 1.44253657 5.51047079 3.33264727 8 6 C5.6875 5.8125 5.6875 5.8125 3 5 C1.1875 2.4375 1.1875 2.4375 0 0 Z " fill="#141414" transform="translate(374,442)"/>
<path d="M0 0 C-1.15173355 2.46800047 -2.04783565 4.04783565 -4 6 C-4.99 5.67 -5.98 5.34 -7 5 C-2.25 0 -2.25 0 0 0 Z " fill="#151514" transform="translate(659,411)"/>
<path d="M0 0 C1.31223496 3.93670488 0.24296256 6.12488144 -1 10 C-2.42944945 7.64561267 -3.08661261 6.51967567 -2.625 3.75 C-2.41875 3.1725 -2.2125 2.595 -2 2 C-1.34 2 -0.68 2 0 2 C0 1.34 0 0.68 0 0 Z " fill="#272728" transform="translate(719,388)"/>
<path d="M0 0 C-3.53411321 2.12046792 -6.94393835 2.53199289 -11 3 C-8.21756596 -1.17365106 -4.53441502 -0.22300402 0 0 Z " fill="#101110" transform="translate(656,265)"/>
<path d="M0 0 C1.32 0.33 2.64 0.66 4 1 C2.68 1.33 1.36 1.66 0 2 C0 1.34 0 0.68 0 0 Z " fill="#373636" transform="translate(592,281)"/>
<path d="M0 0 C0.33 0.99 0.66 1.98 1 3 C0.34 3 -0.32 3 -1 3 C-0.67 2.01 -0.34 1.02 0 0 Z " fill="#373737" transform="translate(313,592)"/>
<path d="M0 0 C0.66 1.32 1.32 2.64 2 4 C1.34 4 0.68 4 0 4 C0 2.68 0 1.36 0 0 Z " fill="#353433" transform="translate(696,393)"/>
<path d="M0 0 C1 4 1 4 1 4 Z " fill="#343334" transform="translate(480,537)"/>
<path d="M0 0 C0.99 0 1.98 0 3 0 C2.67 0.66 2.34 1.32 2 2 C1.34 1.34 0.68 0.68 0 0 Z " fill="#383738" transform="translate(352,536)"/>
<path d="M0 0 C0.99 0.495 0.99 0.495 2 1 C1.67 1.66 1.34 2.32 1 3 C0.67 2.01 0.34 1.02 0 0 Z " fill="#383737" transform="translate(296,321)"/>
<path d="M0 0 C0.33 0.66 0.66 1.32 1 2 C0.34 1.67 -0.32 1.34 -1 1 C-0.67 0.67 -0.34 0.34 0 0 Z " fill="#343433" transform="translate(585,553)"/>
<path d="M0 0 C0.99 0.495 0.99 0.495 2 1 C1.01 1.495 1.01 1.495 0 2 C0 1.34 0 0.68 0 0 Z " fill="#353434" transform="translate(448,525)"/>
<path d="M0 0 C0.99 0.495 0.99 0.495 2 1 C1.01 1.495 1.01 1.495 0 2 C0 1.34 0 0.68 0 0 Z " fill="#363635" transform="translate(369,484)"/>
<path d="M0 0 C0.66 0.66 1.32 1.32 2 2 C1.34 2 0.68 2 0 2 C0 1.34 0 0.68 0 0 Z " fill="#353535" transform="translate(563,469)"/>
<path d="M0 0 C0.66 0 1.32 0 2 0 C1.67 0.66 1.34 1.32 1 2 C0.67 1.34 0.34 0.68 0 0 Z " fill="#363736" transform="translate(323,422)"/>
<path d="M0 0 C0.33 0.66 0.66 1.32 1 2 C0.34 1.67 -0.32 1.34 -1 1 C-0.67 0.67 -0.34 0.34 0 0 Z " fill="#333435" transform="translate(337,408)"/>
<path d="M0 0 C0.99 0.495 0.99 0.495 2 1 C1.01 1.495 1.01 1.495 0 2 C0 1.34 0 0.68 0 0 Z " fill="#363636" transform="translate(704,385)"/>
<path d="M0 0 C0.66 0.66 1.32 1.32 2 2 C1.34 2 0.68 2 0 2 C0 1.34 0 0.68 0 0 Z " fill="#333332" transform="translate(312,368)"/>
<path d="" fill="#383837" transform="translate(0,0)"/>
<path d="M0 0 C3 1 3 1 3 1 Z " fill="#323131" transform="translate(357,272)"/>
<path d="M0 0 C2 1 2 1 2 1 Z " fill="#373636" transform="translate(307,726)"/>
<path d="M0 0 C2 1 2 1 2 1 Z " fill="#363636" transform="translate(712,710)"/>
<path d="M0 0 C2 1 2 1 2 1 Z " fill="#323032" transform="translate(659,702)"/>
<path d="" fill="#393938" transform="translate(0,0)"/>
<path d="M0 0 C2 1 2 1 2 1 Z " fill="#353435" transform="translate(627,694)"/>
<path d="" fill="#393837" transform="translate(0,0)"/>
<path d="M0 0 C2 1 2 1 2 1 Z " fill="#343432" transform="translate(326,615)"/>
<path d="M0 0 C2 1 2 1 2 1 Z " fill="#383636" transform="translate(544,579)"/>
<path d="M0 0 C2 1 2 1 2 1 Z " fill="#383636" transform="translate(320,578)"/>
<path d="M0 0 C2 1 2 1 2 1 Z " fill="#333332" transform="translate(387,566)"/>
<path d="" fill="#343433" transform="translate(0,0)"/>
<path d="" fill="#343234" transform="translate(0,0)"/>
<path d="M0 0 C2 1 2 1 2 1 Z " fill="#333233" transform="translate(583,543)"/>
<path d="" fill="#343333" transform="translate(0,0)"/>
<path d="" fill="#353535" transform="translate(0,0)"/>
<path d="M0 0 C2 1 2 1 2 1 Z " fill="#353533" transform="translate(410,521)"/>
<path d="M0 0 C2 1 2 1 2 1 Z " fill="#373737" transform="translate(437,496)"/>
<path d="M0 0 C2 1 2 1 2 1 Z " fill="#343434" transform="translate(418,488)"/>
<path d="M0 0 C2 1 2 1 2 1 Z " fill="#353435" transform="translate(577,480)"/>
<path d="M0 0 C2 1 2 1 2 1 Z " fill="#323134" transform="translate(390,473)"/>
<path d="" fill="#353536" transform="translate(0,0)"/>
<path d="" fill="#363536" transform="translate(0,0)"/>
<path d="M0 0 C2 1 2 1 2 1 Z " fill="#343432" transform="translate(392,459)"/>
<path d="M0 0 C2 1 2 1 2 1 Z " fill="#323231" transform="translate(627,457)"/>
<path d="M0 0 C2 1 2 1 2 1 Z " fill="#343331" transform="translate(358,450)"/>
<path d="" fill="#333233" transform="translate(0,0)"/>
<path d="M0 0 C2 1 2 1 2 1 Z " fill="#373737" transform="translate(321,416)"/>
<path d="" fill="#323233" transform="translate(0,0)"/>
<path d="" fill="#333332" transform="translate(0,0)"/>
<path d="" fill="#343534" transform="translate(0,0)"/>
<path d="" fill="#343332" transform="translate(0,0)"/>
<path d="" fill="#353535" transform="translate(0,0)"/>
<path d="" fill="#353435" transform="translate(0,0)"/>
<path d="" fill="#383838" transform="translate(0,0)"/>
<path d="" fill="#373537" transform="translate(0,0)"/>
<path d="" fill="#373538" transform="translate(0,0)"/>
<path d="M0 0 C2 1 2 1 2 1 Z " fill="#343534" transform="translate(512,353)"/>
<path d="" fill="#323434" transform="translate(0,0)"/>
<path d="" fill="#363635" transform="translate(0,0)"/>
<path d="" fill="#373737" transform="translate(0,0)"/>
<path d="" fill="#353636" transform="translate(0,0)"/>
<path d="M0 0 C2 1 2 1 2 1 Z " fill="#343433" transform="translate(645,264)"/>
<path d="" fill="#373636" transform="translate(0,0)"/>
<path d="" fill="#1C1D1C" transform="translate(0,0)"/>
<path d="" fill="#363434" transform="translate(0,0)"/>
<path d="" fill="#343535" transform="translate(0,0)"/>
<path d="" fill="#373938" transform="translate(0,0)"/>
<path d="" fill="#353434" transform="translate(0,0)"/>
<path d="" fill="#373535" transform="translate(0,0)"/>
<path d="" fill="#323231" transform="translate(0,0)"/>
<path d="" fill="#333233" transform="translate(0,0)"/>
<path d="" fill="#343633" transform="translate(0,0)"/>
<path d="" fill="#383939" transform="translate(0,0)"/>
<path d="" fill="#373735" transform="translate(0,0)"/>
<path d="" fill="#333436" transform="translate(0,0)"/>
<path d="" fill="#353231" transform="translate(0,0)"/>
<path d="" fill="#373635" transform="translate(0,0)"/>
<path d="" fill="#363536" transform="translate(0,0)"/>
<path d="" fill="#363535" transform="translate(0,0)"/>
<path d="" fill="#343535" transform="translate(0,0)"/>
<path d="" fill="#323232" transform="translate(0,0)"/>
<path d="" fill="#353534" transform="translate(0,0)"/>
<path d="" fill="#353334" transform="translate(0,0)"/>
<path d="" fill="#353633" transform="translate(0,0)"/>
<path d="" fill="#353434" transform="translate(0,0)"/>
<path d="" fill="#343535" transform="translate(0,0)"/>
<path d="" fill="#353434" transform="translate(0,0)"/>
<path d="" fill="#333232" transform="translate(0,0)"/>
<path d="" fill="#363537" transform="translate(0,0)"/>
<path d="" fill="#353735" transform="translate(0,0)"/>
<path d="" fill="#343435" transform="translate(0,0)"/>
<path d="" fill="#393839" transform="translate(0,0)"/>
<path d="" fill="#353534" transform="translate(0,0)"/>
<path d="" fill="#393837" transform="translate(0,0)"/>
<path d="" fill="#323131" transform="translate(0,0)"/>
<path d="" fill="#353535" transform="translate(0,0)"/>
<path d="" fill="#333434" transform="translate(0,0)"/>
<path d="" fill="#343335" transform="translate(0,0)"/>
<path d="" fill="#343234" transform="translate(0,0)"/>
<path d="" fill="#363838" transform="translate(0,0)"/>
<path d="" fill="#313032" transform="translate(0,0)"/>
<path d="" fill="#343434" transform="translate(0,0)"/>
<path d="" fill="#333030" transform="translate(0,0)"/>
<path d="" fill="#3A3938" transform="translate(0,0)"/>
<path d="" fill="#373735" transform="translate(0,0)"/>
<path d="" fill="#323232" transform="translate(0,0)"/>
<path d="" fill="#373938" transform="translate(0,0)"/>
<path d="" fill="#343434" transform="translate(0,0)"/>
<path d="" fill="#363834" transform="translate(0,0)"/>
<path d="" fill="#333334" transform="translate(0,0)"/>
<path d="" fill="#393939" transform="translate(0,0)"/>
<path d="" fill="#353536" transform="translate(0,0)"/>
<path d="" fill="#393938" transform="translate(0,0)"/>
<path d="" fill="#363636" transform="translate(0,0)"/>
<path d="" fill="#383535" transform="translate(0,0)"/>
<path d="" fill="#353736" transform="translate(0,0)"/>
<path d="" fill="#363435" transform="translate(0,0)"/>
<path d="" fill="#383837" transform="translate(0,0)"/>
<path d="" fill="#3A3738" transform="translate(0,0)"/>
<path d="" fill="#3A3737" transform="translate(0,0)"/>
<path d="" fill="#343235" transform="translate(0,0)"/>
<path d="" fill="#333232" transform="translate(0,0)"/>
<path d="" fill="#383838" transform="translate(0,0)"/>
<path d="" fill="#373838" transform="translate(0,0)"/>
<path d="" fill="#373637" transform="translate(0,0)"/>
<path d="" fill="#333332" transform="translate(0,0)"/>
<path d="" fill="#393837" transform="translate(0,0)"/>
<path d="" fill="#383838" transform="translate(0,0)"/>
<path d="" fill="#333332" transform="translate(0,0)"/>
<path d="" fill="#343334" transform="translate(0,0)"/>
<path d="" fill="#383938" transform="translate(0,0)"/>
<path d="" fill="#313130" transform="translate(0,0)"/>
<path d="" fill="#353332" transform="translate(0,0)"/>
<path d="" fill="#363535" transform="translate(0,0)"/>
<path d="" fill="#323233" transform="translate(0,0)"/>
<path d="" fill="#333634" transform="translate(0,0)"/>
<path d="" fill="#313532" transform="translate(0,0)"/>
<path d="" fill="#323435" transform="translate(0,0)"/>
<path d="" fill="#353637" transform="translate(0,0)"/>
<path d="" fill="#363735" transform="translate(0,0)"/>
<path d="" fill="#343334" transform="translate(0,0)"/>
<path d="" fill="#353536" transform="translate(0,0)"/>
<path d="" fill="#333232" transform="translate(0,0)"/>
<path d="" fill="#343334" transform="translate(0,0)"/>
<path d="" fill="#393739" transform="translate(0,0)"/>
<path d="" fill="#343534" transform="translate(0,0)"/>
<path d="" fill="#343535" transform="translate(0,0)"/>
<path d="" fill="#363433" transform="translate(0,0)"/>
<path d="" fill="#383637" transform="translate(0,0)"/>
<path d="" fill="#323230" transform="translate(0,0)"/>
<path d="" fill="#31302F" transform="translate(0,0)"/>
<path d="" fill="#333032" transform="translate(0,0)"/>
<path d="" fill="#323533" transform="translate(0,0)"/>
<path d="" fill="#373435" transform="translate(0,0)"/>
<path d="" fill="#353234" transform="translate(0,0)"/>
<path d="" fill="#363736" transform="translate(0,0)"/>
<path d="" fill="#353435" transform="translate(0,0)"/>
<path d="" fill="#333536" transform="translate(0,0)"/>
<path d="" fill="#2F2F30" transform="translate(0,0)"/>
<path d="" fill="#343434" transform="translate(0,0)"/>
<path d="" fill="#363734" transform="translate(0,0)"/>
<path d="" fill="#323130" transform="translate(0,0)"/>
<path d="" fill="#363434" transform="translate(0,0)"/>
<path d="" fill="#353534" transform="translate(0,0)"/>
<path d="" fill="#343334" transform="translate(0,0)"/>
<path d="" fill="#353432" transform="translate(0,0)"/>
<path d="" fill="#363534" transform="translate(0,0)"/>
<path d="" fill="#353635" transform="translate(0,0)"/>
<path d="" fill="#2F2E32" transform="translate(0,0)"/>
<path d="" fill="#343433" transform="translate(0,0)"/>
<path d="" fill="#343533" transform="translate(0,0)"/>
<path d="" fill="#333232" transform="translate(0,0)"/>
<path d="" fill="#353436" transform="translate(0,0)"/>
<path d="" fill="#353433" transform="translate(0,0)"/>
<path d="" fill="#363433" transform="translate(0,0)"/>
<path d="" fill="#343234" transform="translate(0,0)"/>
<path d="" fill="#373634" transform="translate(0,0)"/>
<path d="" fill="#343231" transform="translate(0,0)"/>
<path d="" fill="#343332" transform="translate(0,0)"/>
<path d="" fill="#343433" transform="translate(0,0)"/>
<path d="" fill="#343534" transform="translate(0,0)"/>
<path d="" fill="#353433" transform="translate(0,0)"/>
<path d="" fill="#31312F" transform="translate(0,0)"/>
<path d="" fill="#323130" transform="translate(0,0)"/>
<path d="" fill="#3A3838" transform="translate(0,0)"/>
<path d="" fill="#353637" transform="translate(0,0)"/>
<path d="" fill="#373837" transform="translate(0,0)"/>
<path d="" fill="#343836" transform="translate(0,0)"/>
<path d="" fill="#343435" transform="translate(0,0)"/>
<path d="" fill="#2F2E2E" transform="translate(0,0)"/>
<path d="" fill="#393737" transform="translate(0,0)"/>
<path d="" fill="#363433" transform="translate(0,0)"/>
<path d="" fill="#363634" transform="translate(0,0)"/>
<path d="" fill="#363635" transform="translate(0,0)"/>
<path d="" fill="#342F30" transform="translate(0,0)"/>
<path d="" fill="#343231" transform="translate(0,0)"/>
<path d="" fill="#373737" transform="translate(0,0)"/>
<path d="" fill="#343434" transform="translate(0,0)"/>
<path d="" fill="#333234" transform="translate(0,0)"/>
<path d="" fill="#373636" transform="translate(0,0)"/>
<path d="" fill="#3E3D3E" transform="translate(0,0)"/>
<path d="" fill="#38383A" transform="translate(0,0)"/>
<path d="" fill="#363635" transform="translate(0,0)"/>
<path d="" fill="#353634" transform="translate(0,0)"/>
<path d="" fill="#302F30" transform="translate(0,0)"/>
<path d="" fill="#303131" transform="translate(0,0)"/>
<path d="" fill="#383537" transform="translate(0,0)"/>
<path d="" fill="#343130" transform="translate(0,0)"/>
<path d="" fill="#303131" transform="translate(0,0)"/>
<path d="" fill="#343432" transform="translate(0,0)"/>
<path d="" fill="#393636" transform="translate(0,0)"/>
<path d="" fill="#313232" transform="translate(0,0)"/>
<path d="" fill="#393638" transform="translate(0,0)"/>
<path d="" fill="#353431" transform="translate(0,0)"/>
<path d="" fill="#363535" transform="translate(0,0)"/>
<path d="" fill="#343534" transform="translate(0,0)"/>
<path d="" fill="#323131" transform="translate(0,0)"/>
<path d="" fill="#363736" transform="translate(0,0)"/>
<path d="" fill="#363736" transform="translate(0,0)"/>
<path d="" fill="#333333" transform="translate(0,0)"/>
<path d="" fill="#373636" transform="translate(0,0)"/>
<path d="" fill="#373637" transform="translate(0,0)"/>
<path d="" fill="#383936" transform="translate(0,0)"/>
<path d="" fill="#373A3A" transform="translate(0,0)"/>
<path d="" fill="#363535" transform="translate(0,0)"/>
<path d="" fill="#373635" transform="translate(0,0)"/>
<path d="" fill="#383537" transform="translate(0,0)"/>
<path d="" fill="#353434" transform="translate(0,0)"/>
<path d="" fill="#363336" transform="translate(0,0)"/>
<path d="" fill="#333133" transform="translate(0,0)"/>
<path d="" fill="#373838" transform="translate(0,0)"/>
<path d="" fill="#363635" transform="translate(0,0)"/>
<path d="" fill="#363635" transform="translate(0,0)"/>
<path d="" fill="#363636" transform="translate(0,0)"/>
<path d="" fill="#333334" transform="translate(0,0)"/>
<path d="" fill="#363534" transform="translate(0,0)"/>
<path d="" fill="#323232" transform="translate(0,0)"/>
<path d="" fill="#333231" transform="translate(0,0)"/>
<path d="" fill="#383836" transform="translate(0,0)"/>
<path d="" fill="#373937" transform="translate(0,0)"/>
<path d="" fill="#393736" transform="translate(0,0)"/>
<path d="" fill="#383836" transform="translate(0,0)"/>
<path d="" fill="#353535" transform="translate(0,0)"/>
<path d="" fill="#373636" transform="translate(0,0)"/>
<path d="" fill="#393738" transform="translate(0,0)"/>
<path d="" fill="#373834" transform="translate(0,0)"/>
<path d="" fill="#363435" transform="translate(0,0)"/>
<path d="" fill="#353636" transform="translate(0,0)"/>
<path d="" fill="#343535" transform="translate(0,0)"/>
<path d="" fill="#333233" transform="translate(0,0)"/>
<path d="" fill="#373737" transform="translate(0,0)"/>
<path d="" fill="#353635" transform="translate(0,0)"/>
<path d="" fill="#383535" transform="translate(0,0)"/>
<path d="" fill="#333332" transform="translate(0,0)"/>
<path d="" fill="#333333" transform="translate(0,0)"/>
<path d="" fill="#373736" transform="translate(0,0)"/>
<path d="" fill="#393735" transform="translate(0,0)"/>
<path d="" fill="#353334" transform="translate(0,0)"/>
<path d="" fill="#343534" transform="translate(0,0)"/>
<path d="" fill="#363334" transform="translate(0,0)"/>
<path d="" fill="#383836" transform="translate(0,0)"/>
<path d="" fill="#353635" transform="translate(0,0)"/>
<path d="" fill="#373737" transform="translate(0,0)"/>
<path d="" fill="#353432" transform="translate(0,0)"/>
<path d="" fill="#343435" transform="translate(0,0)"/>
<path d="" fill="#343535" transform="translate(0,0)"/>
<path d="" fill="#373835" transform="translate(0,0)"/>
<path d="" fill="#313130" transform="translate(0,0)"/>
<path d="" fill="#363435" transform="translate(0,0)"/>
<path d="" fill="#313130" transform="translate(0,0)"/>
<path d="" fill="#313232" transform="translate(0,0)"/>
<path d="" fill="#333131" transform="translate(0,0)"/>
<path d="" fill="#333232" transform="translate(0,0)"/>
<path d="" fill="#343435" transform="translate(0,0)"/>
<path d="" fill="#373839" transform="translate(0,0)"/>
<path d="" fill="#383535" transform="translate(0,0)"/>
<path d="" fill="#343436" transform="translate(0,0)"/>
<path d="" fill="#343433" transform="translate(0,0)"/>
<path d="" fill="#333233" transform="translate(0,0)"/>
<path d="" fill="#373636" transform="translate(0,0)"/>
<path d="" fill="#353335" transform="translate(0,0)"/>
<path d="" fill="#363533" transform="translate(0,0)"/>
<path d="" fill="#383637" transform="translate(0,0)"/>
<path d="" fill="#333332" transform="translate(0,0)"/>
<path d="" fill="#353634" transform="translate(0,0)"/>
<path d="" fill="#353436" transform="translate(0,0)"/>
<path d="" fill="#343235" transform="translate(0,0)"/>
<path d="" fill="#353532" transform="translate(0,0)"/>
<path d="" fill="#333334" transform="translate(0,0)"/>
<path d="" fill="#333233" transform="translate(0,0)"/>
<path d="" fill="#343434" transform="translate(0,0)"/>
<path d="" fill="#363636" transform="translate(0,0)"/>
<path d="" fill="#363536" transform="translate(0,0)"/>
<path d="" fill="#353635" transform="translate(0,0)"/>
<path d="" fill="#343331" transform="translate(0,0)"/>
<path d="" fill="#333330" transform="translate(0,0)"/>
<path d="" fill="#323232" transform="translate(0,0)"/>
<path d="" fill="#373635" transform="translate(0,0)"/>
<path d="" fill="#383434" transform="translate(0,0)"/>
<path d="" fill="#353634" transform="translate(0,0)"/>
<path d="" fill="#363433" transform="translate(0,0)"/>
<path d="" fill="#333433" transform="translate(0,0)"/>
<path d="" fill="#333334" transform="translate(0,0)"/>
<path d="" fill="#333534" transform="translate(0,0)"/>
<path d="" fill="#353236" transform="translate(0,0)"/>
<path d="" fill="#393536" transform="translate(0,0)"/>
<path d="" fill="#323232" transform="translate(0,0)"/>
<path d="" fill="#373836" transform="translate(0,0)"/>
<path d="" fill="#343336" transform="translate(0,0)"/>
<path d="" fill="#333534" transform="translate(0,0)"/>
<path d="" fill="#353534" transform="translate(0,0)"/>
<path d="" fill="#323434" transform="translate(0,0)"/>
<path d="" fill="#323132" transform="translate(0,0)"/>
<path d="" fill="#343433" transform="translate(0,0)"/>
<path d="" fill="#343235" transform="translate(0,0)"/>
<path d="" fill="#323331" transform="translate(0,0)"/>
<path d="" fill="#383536" transform="translate(0,0)"/>
<path d="" fill="#333331" transform="translate(0,0)"/>
<path d="" fill="#343534" transform="translate(0,0)"/>
<path d="" fill="#333435" transform="translate(0,0)"/>
<path d="" fill="#343433" transform="translate(0,0)"/>
<path d="" fill="#343333" transform="translate(0,0)"/>
<path d="" fill="#333532" transform="translate(0,0)"/>
<path d="" fill="#2F3330" transform="translate(0,0)"/>
<path d="" fill="#333232" transform="translate(0,0)"/>
<path d="" fill="#353335" transform="translate(0,0)"/>
<path d="" fill="#313234" transform="translate(0,0)"/>
<path d="" fill="#353532" transform="translate(0,0)"/>
<path d="" fill="#313230" transform="translate(0,0)"/>
<path d="" fill="#31302F" transform="translate(0,0)"/>
<path d="" fill="#333232" transform="translate(0,0)"/>
<path d="" fill="#333331" transform="translate(0,0)"/>
<path d="" fill="#333333" transform="translate(0,0)"/>
<path d="" fill="#343634" transform="translate(0,0)"/>
<path d="" fill="#323432" transform="translate(0,0)"/>
<path d="" fill="#343333" transform="translate(0,0)"/>
<path d="" fill="#343632" transform="translate(0,0)"/>
<path d="" fill="#343434" transform="translate(0,0)"/>
<path d="" fill="#333231" transform="translate(0,0)"/>
<path d="" fill="#353536" transform="translate(0,0)"/>
<path d="" fill="#363533" transform="translate(0,0)"/>
<path d="" fill="#302F32" transform="translate(0,0)"/>
<path d="" fill="#363434" transform="translate(0,0)"/>
<path d="" fill="#333432" transform="translate(0,0)"/>
<path d="" fill="#343433" transform="translate(0,0)"/>
<path d="" fill="#323432" transform="translate(0,0)"/>
<path d="" fill="#343433" transform="translate(0,0)"/>
<path d="" fill="#333332" transform="translate(0,0)"/>
<path d="" fill="#343333" transform="translate(0,0)"/>
<path d="" fill="#323433" transform="translate(0,0)"/>
<path d="" fill="#343533" transform="translate(0,0)"/>
<path d="" fill="#313131" transform="translate(0,0)"/>
<path d="" fill="#343332" transform="translate(0,0)"/>
<path d="" fill="#333133" transform="translate(0,0)"/>
<path d="" fill="#333333" transform="translate(0,0)"/>
<path d="" fill="#353435" transform="translate(0,0)"/>
<path d="" fill="#353839" transform="translate(0,0)"/>
<path d="" fill="#343733" transform="translate(0,0)"/>
<path d="" fill="#343334" transform="translate(0,0)"/>
<path d="" fill="#353233" transform="translate(0,0)"/>
<path d="" fill="#333333" transform="translate(0,0)"/>
<path d="" fill="#363535" transform="translate(0,0)"/>
<path d="" fill="#363436" transform="translate(0,0)"/>
<path d="" fill="#313130" transform="translate(0,0)"/>
<path d="" fill="#343334" transform="translate(0,0)"/>
<path d="" fill="#383537" transform="translate(0,0)"/>
<path d="" fill="#373536" transform="translate(0,0)"/>
<path d="" fill="#393636" transform="translate(0,0)"/>
<path d="" fill="#323331" transform="translate(0,0)"/>
<path d="" fill="#383636" transform="translate(0,0)"/>
<path d="" fill="#353436" transform="translate(0,0)"/>
<path d="" fill="#353537" transform="translate(0,0)"/>
<path d="" fill="#343535" transform="translate(0,0)"/>
<path d="" fill="#373537" transform="translate(0,0)"/>
<path d="" fill="#363533" transform="translate(0,0)"/>
<path d="" fill="#343031" transform="translate(0,0)"/>
<path d="" fill="#383736" transform="translate(0,0)"/>
<path d="" fill="#383836" transform="translate(0,0)"/>
<path d="" fill="#373838" transform="translate(0,0)"/>
<path d="" fill="#333435" transform="translate(0,0)"/>
<path d="" fill="#3A3939" transform="translate(0,0)"/>
<path d="" fill="#353534" transform="translate(0,0)"/>
<path d="" fill="#333633" transform="translate(0,0)"/>
<path d="" fill="#383838" transform="translate(0,0)"/>
<path d="" fill="#363638" transform="translate(0,0)"/>
<path d="" fill="#363635" transform="translate(0,0)"/>
<path d="" fill="#3B3C3A" transform="translate(0,0)"/>
<path d="" fill="#363632" transform="translate(0,0)"/>
<path d="" fill="#373738" transform="translate(0,0)"/>
<path d="" fill="#363838" transform="translate(0,0)"/>
<path d="" fill="#383837" transform="translate(0,0)"/>
<path d="" fill="#363535" transform="translate(0,0)"/>
<path d="" fill="#3D3B3B" transform="translate(0,0)"/>
<path d="" fill="#393839" transform="translate(0,0)"/>
<path d="" fill="#3A3A38" transform="translate(0,0)"/>
<path d="" fill="#373633" transform="translate(0,0)"/>
<path d="" fill="#3A3A39" transform="translate(0,0)"/>
<path d="" fill="#343434" transform="translate(0,0)"/>
<path d="" fill="#3B3B3A" transform="translate(0,0)"/>
<path d="" fill="#393839" transform="translate(0,0)"/>
<path d="" fill="#353435" transform="translate(0,0)"/>
<path d="" fill="#393A3A" transform="translate(0,0)"/>
</svg>
